<svg xmlns="http://www.w3.org/2000/svg" xml:space="preserve" width="800" height="800" viewBox="0 0 511.753 511.753">
  <path d="M261.107.273a50.447 50.447 0 0 0-10.462 0c-58.735 2.756-105.702 51.26-105.702 110.66V179.2c0 7.066 3.558 13.269 9.745 18.611l86.11 143.522h-33.203c-10.829 0-19.977 7.757-21.769 18.551l-15.189 99.635-.094 1.28c0 26.982 33.101 48.461 76.8 50.953v-43.281c-19.456-3.959-34.133-21.197-34.133-41.805 0-23.518 19.14-42.667 42.667-42.667 23.518 0 42.667 19.149 42.667 42.667 0 20.608-14.686 37.845-34.133 41.805v43.281c43.691-2.492 76.8-23.97 76.8-50.953l-15.3-101.026a21.99 21.99 0 0 0-21.76-18.44h-33.203l86.11-143.522c6.187-5.342 9.754-11.546 9.754-18.611v-68.267C366.81 51.533 319.834 3.029 261.107.273zM221.743 51.2c0-18.816 15.3-34.133 34.133-34.133 18.825 0 34.133 15.317 34.133 34.133v87.287c-1.86-.213-3.721-.418-5.606-.597-1.22-.119-2.449-.205-3.678-.307a277.726 277.726 0 0 0-8.926-.597c-1.212-.06-2.406-.128-3.618-.179-4.096-.162-8.201-.273-12.305-.273-4.113 0-8.218.111-12.314.273-1.212.051-2.406.12-3.618.179-2.995.154-5.965.35-8.926.597-1.229.094-2.449.188-3.669.307-1.886.179-3.746.384-5.606.597V51.2zm65.954 104.098-10.155 48.742c-6.775.486-14.003.76-21.666.76-7.672 0-14.891-.273-21.675-.76l-10.155-48.742c9.574-1.067 20.181-1.698 31.829-1.698 11.641 0 22.248.632 31.822 1.698zM162.01 110.933c0-34.944 19.234-65.434 47.633-81.587-3.149 6.639-4.966 14.029-4.966 21.854v89.805c-.179.034-.341.068-.512.102-1.058.196-2.074.418-3.106.631a200.687 200.687 0 0 0-7.91 1.766c-1.067.265-2.142.529-3.183.811a143.701 143.701 0 0 0-8.499 2.517c-.452.145-.939.273-1.391.427a113.67 113.67 0 0 0-8.798 3.422c-.777.333-1.476.691-2.219 1.041a76.781 76.781 0 0 0-5.683 2.927c-.427.247-.947.452-1.365.708v-44.424zm.384 66.552c2.569-6.007 17.937-14.609 44.749-19.686l9.242 44.331c-23.936-3.456-40.337-9.702-48.452-15.42l-5.539-9.225zm20.77 34.62c10.94 3.447 23.509 5.99 36.881 7.612l17.186 82.5-54.067-90.112zm72.712 95.94-18.074-86.733c5.982.35 12.023.555 18.074.555 6.042 0 12.083-.205 18.065-.555l-18.065 86.733zm18.637-5.828 17.186-82.5c13.372-1.621 25.941-4.164 36.881-7.612l-54.067 90.112zm69.308-115.508c-8.124 5.717-24.525 11.964-48.452 15.42l9.233-44.331c26.812 5.077 42.18 13.679 44.749 19.686l-5.53 9.225zm5.922-31.351c-.427-.256-.947-.461-1.374-.708a76.781 76.781 0 0 0-5.683-2.927c-.742-.35-1.442-.708-2.21-1.041a114.041 114.041 0 0 0-8.806-3.422c-.452-.154-.939-.282-1.399-.435a151.4 151.4 0 0 0-8.482-2.509c-1.05-.282-2.116-.546-3.191-.811a201.09 201.09 0 0 0-7.91-1.766c-1.033-.213-2.048-.435-3.106-.631l-.503-.102V51.2c0-7.825-1.818-15.215-4.975-21.854 28.399 16.154 47.642 46.643 47.642 81.587v44.425z"/>
  <path d="M281.473 426.671c0-14.114-11.486-25.6-25.6-25.6s-25.6 11.486-25.6 25.6 11.486 25.6 25.6 25.6 25.6-11.486 25.6-25.6zm-25.6 8.533c-4.71 0-8.533-3.823-8.533-8.533s3.823-8.533 8.533-8.533c4.71 0 8.533 3.823 8.533 8.533s-3.823 8.533-8.533 8.533z"/>
</svg>
