<svg xmlns="http://www.w3.org/2000/svg" xml:space="preserve" width="800" height="800" viewBox="0 0 512 512">
  <path d="M69.424 360.136c-9.572 0-17.356 7.784-17.356 17.356 0 9.572 7.784 17.356 17.356 17.356 9.572 0 17.356-7.784 17.356-17.356 0-9.572-7.784-17.356-17.356-17.356zM442.576 360.136c-9.572 0-17.356 7.784-17.356 17.356 0 9.572 7.784 17.356 17.356 17.356 9.572 0 17.356-7.784 17.356-17.356 0-9.572-7.784-17.356-17.356-17.356z"/>
  <path d="M502.61 342.78h.712v-26.034c0-25.748-18.805-47.13-43.39-51.287v-.781c0-14.353-11.681-26.034-26.034-26.034s-26.034 11.681-26.034 26.034v52.779a70.227 70.227 0 0 0-11.056 7.966h-28.195l29.956-74.873a8.779 8.779 0 0 0 .616-3.228V212.61c0-14.353-11.681-26.034-26.034-26.034s-26.034 11.681-26.034 26.034v24.151l-24.524 53.951h-53.578c-14.353 0-26.034 11.681-26.034 26.034 0 3.055.625 5.953 1.597 8.678h-18.953v-52.432c0-9.372-7.619-16.991-16.991-16.991h-.365v-17.356c0-4.417 5.059-10.899 9.971-15.638l9.121 12.167a8.66 8.66 0 0 0 6.951 3.471 8.642 8.642 0 0 0 5.198-1.736c3.836-2.872 4.608-8.313 1.736-12.149l-26.034-34.712c-2.864-3.827-8.305-4.608-12.149-1.736-3.836 2.872-4.608 8.313-1.736 12.149l6.439 8.583c-6.092 5.528-16.853 17.07-16.853 29.601V256h-.365c-9.372 0-16.991 7.619-16.991 16.991v9.042h-26.034v-78.102c0-10.709-7.845-20.654-13.937-26.789 9.285-12.062 14.371-26.728 14.371-42.201 0-18.545-7.22-35.979-20.332-49.083l-6.135-6.135-42.956 42.947-17.79-17.79V73.763l-8.678-8.678h-34.71l-8.678 8.678v34.712l8.678 8.678h31.119l17.79 17.79-42.947 42.956 6.135 6.135c13.104 13.112 30.538 20.332 49.083 20.332 15.768 0 30.694-5.259 42.887-14.883 4.487 4.573 8.747 10.362 8.747 14.449v121.492h-14.978c-12.236-10.769-28.229-17.356-45.768-17.356C31.145 308.068 0 339.213 0 377.492s31.145 69.424 69.424 69.424c25.626 0 48.007-13.998 60.034-34.712h59.835c19.473 0 35.302-15.447 36.17-34.712h87.109c.868 19.265 16.696 34.712 36.17 34.712h33.801c12.028 20.714 34.408 34.712 60.034 34.712 38.279 0 69.424-31.145 69.424-69.424-.001-12.653-3.455-24.49-9.391-34.712zM69.424 412.203c-19.144 0-34.712-15.568-34.712-34.712S50.28 342.78 69.424 342.78c19.144 0 34.712 15.568 34.712 34.712s-15.569 34.711-34.712 34.711zm119.868-17.356h-52.667c.078-.312.104-.634.182-.946a70.1 70.1 0 0 0 1.206-6.196c.104-.703.234-1.397.321-2.1.312-2.664.512-5.363.512-8.114H208.2c-.831 9.711-8.989 17.356-18.908 17.356zm159.449 0c-9.919 0-18.076-7.645-18.909-17.356h43.32c0 2.751.2 5.45.512 8.114.087.703.217 1.397.321 2.1a70.464 70.464 0 0 0 1.206 6.196c.078.312.104.633.182.946h-26.632zm33.68-51.859a68.93 68.93 0 0 0-6.934 16.965c-.017.061-.043.121-.061.182H136.574c-.017-.061-.043-.122-.061-.182a68.899 68.899 0 0 0-6.934-16.965c-.035-.069-.061-.139-.104-.208H382.525c-.044.069-.07.139-.104.208zm60.155 69.215c-19.144 0-34.712-15.568-34.712-34.712s15.568-34.712 34.712-34.712c19.144 0 34.712 15.568 34.712 34.712s-15.568 34.712-34.712 34.712zm43.39-88.819c-7.55-6.066-16.393-10.535-26.034-13.034v-27.084c14.926 3.879 26.034 17.356 26.034 33.48v6.638z"/>
</svg>
