<svg xmlns="http://www.w3.org/2000/svg" xml:space="preserve" width="800" height="800" viewBox="0 0 512.375 512.375">
  <path d="M332.989 450.628v-83.319c0-30.08-18.116-58.291-35.84-81.92l-6.827-9.105v-63.01c9.728-1.98 17.067-10.598 17.067-20.898V94.242h-102.4v98.133c0 10.3 7.339 18.918 17.067 20.898v63.01l-6.827 9.105c-17.724 23.629-35.84 51.849-35.84 81.92v83.319l-16.171 32.333a8.562 8.562 0 0 0 .375 8.303 8.545 8.545 0 0 0 7.262 4.045h37.393l-2.364 4.719a8.562 8.562 0 0 0 .375 8.303 8.545 8.545 0 0 0 7.262 4.045h85.333a8.53 8.53 0 0 0 7.253-4.045 8.515 8.515 0 0 0 .375-8.303l-2.355-4.719h37.393a8.53 8.53 0 0 0 7.253-4.045 8.515 8.515 0 0 0 .375-8.303l-16.159-32.332zm-110.933 17.067-5.274 10.547h-32.119l8.533-17.067h28.86v6.52zm25.6-347.853a8.536 8.536 0 0 1 8.533-8.533 8.536 8.536 0 0 1 8.533 8.533v51.2a8.536 8.536 0 0 1-8.533 8.533 8.536 8.536 0 0 1-8.533-8.533v-51.2zm-8.533 93.867h34.133v61.943c-.845-1.536-1.792-3.012-2.697-4.514-.572-.956-1.109-1.92-1.707-2.859-1.843-2.901-3.772-5.743-5.837-8.491l-6.827-9.105-6.827 9.105c-2.065 2.748-3.994 5.589-5.837 8.491-.597.939-1.135 1.903-1.707 2.859-.905 1.502-1.852 2.978-2.697 4.514v-61.943zm0 238.933V341.709c0-21.589 5.999-43.025 17.067-61.508 11.068 18.483 17.067 39.919 17.067 61.508V461.175h-34.133v-8.533zm-11.793 42.667 2.355-4.719 6.178-12.348h40.653l6.17 12.348 2.364 4.719h-57.72zm68.266-17.067-5.274-10.547v-6.519h28.86l8.533 17.067h-32.119zM258.638.734 256.189 0l-2.449.734c-1.911.572-44.706 14.31-48.393 76.442H307.03c-3.686-62.132-46.489-75.87-48.392-76.442z"/>
</svg>
