<svg xmlns="http://www.w3.org/2000/svg" xml:space="preserve" width="800" height="800" viewBox="0 0 512.001 512.001">
  <path d="M366.933 450.877V349.868c0-.111-.06-.196-.06-.307-.034-.922-.162-1.852-.504-2.739l-27.87-72.823a8.427 8.427 0 0 0-.341-.759c-2.654-5.299-7.97-8.585-13.892-8.585v-85.453h-102.4v85.453c-5.922 0-11.238 3.285-13.892 8.585a8.643 8.643 0 0 0-.333.759l-27.878 72.823c-.341.887-.469 1.818-.503 2.739 0 .111-.06.196-.06.307v101.009l-16.631 49.894a8.528 8.528 0 0 0 1.178 7.68 8.512 8.512 0 0 0 6.921 3.55h204.8a8.514 8.514 0 0 0 6.921-3.55 8.534 8.534 0 0 0 1.178-7.68l-16.634-49.894zm-93.867-254.609a8.536 8.536 0 0 1 8.533 8.533 8.536 8.536 0 0 1-8.533 8.533 8.536 8.536 0 0 1-8.533-8.533 8.536 8.536 0 0 1 8.533-8.533zm0 34.133c4.71 0 8.533 3.823 8.533 8.533s-3.823 8.533-8.533 8.533c-4.71 0-8.533-3.823-8.533-8.533s3.823-8.533 8.533-8.533zm-17.63 100.224 17.613-46.106 17.647 46.106 4.096 10.709H251.34l4.096-10.709zm-39.722 164.309h-33.212l11.383-34.133h33.212l-11.383 34.133zm-15.574-153.6 21.726-56.764.563 1.468v.009l15.898 41.532-5.265 13.756H200.14zm33.571 153.6 11.375-34.133h55.962l11.383 34.133h-78.72zm74.094-167.356 15.898-41.532c.026-.068.017-.145.043-.213l.503-1.314 21.752 56.815h-32.93l-5.266-13.756zm22.614 167.356-11.375-34.133h33.203l11.383 34.133h-33.211zM286.958 8.701c-2.654-5.299-7.97-8.585-13.892-8.585s-11.238 3.285-14.225 9.353l-25.779 67.328h80.009L286.958 8.701zM316.63 93.868h-87.125l-6.827 68.267h100.779l-6.827-68.267zm-35.03 42.666a8.536 8.536 0 0 1-8.533 8.533 8.536 8.536 0 0 1-8.533-8.533v-17.067a8.536 8.536 0 0 1 8.533-8.533 8.536 8.536 0 0 1 8.533 8.533v17.067z"/>
</svg>
