<svg xmlns="http://www.w3.org/2000/svg" xml:space="preserve" viewBox="0 0 512 512">
  <path d="M366.933 247.851h-25.6v-25.6c0-14.114-11.486-25.6-25.6-25.6h-25.6v-41.31c30.097-13.193 51.2-43.238 51.2-78.157a8.53 8.53 0 0 0-8.533-8.533h-68.267V51.584h8.533l8.533-8.533V8.918L273.066.385h-34.133L230.4 8.918v34.133l8.533 8.533h8.533v17.067H179.2a8.53 8.53 0 0 0-8.533 8.533c0 34.918 21.103 64.964 51.2 78.157v41.31h-25.6c-14.114 0-25.6 11.486-25.6 25.6v25.6H102.4v25.6H128v17.067h-25.6v25.6h68.266v42.667c0 14.114 11.486 25.6 25.6 25.6h25.6v34.133h-8.533a8.53 8.53 0 0 0-8.533 8.533v34.133c0 25.318 18.492 46.344 42.667 50.432v-41.899c0-4.71 3.814-8.533 8.533-8.533s8.533 3.823 8.533 8.533v41.899c24.175-4.088 42.667-25.114 42.667-50.432v-34.133a8.53 8.53 0 0 0-8.533-8.533h-8.533v-34.133h25.6c14.114 0 25.6-11.486 25.6-25.6v-42.667H409.6v-25.6H384v-17.067h25.6v-25.6h-42.667zm-196.266 51.2h-25.6v-34.133h25.6v34.133zm119.466 34.133a8.53 8.53 0 0 1-8.533 8.533h-51.2a8.53 8.53 0 0 1-8.533-8.533v-85.333a8.53 8.53 0 0 1 8.533-8.533h51.2a8.53 8.53 0 0 1 8.533 8.533v85.333zm76.8-51.2v17.067h-25.6v-34.133h25.6v17.066zM426.667 247.851h25.6v25.6h-25.6zM426.667 290.518h25.6v25.6h-25.6zM426.667 188.118h25.6v42.667h-25.6zM426.667 333.184h25.6v42.667h-25.6z"/>
  <path d="M366.933 367.318a8.53 8.53 0 0 0 8.533 8.533H409.6v-42.667h-42.667v34.134zM366.933 196.651v34.133H409.6v-42.667h-34.133a8.533 8.533 0 0 0-8.534 8.534zM469.333 375.851h34.133a8.53 8.53 0 0 0 8.533-8.533v-34.133h-42.667v42.666zM469.333 247.851H512v25.6h-42.667zM469.333 290.518H512v25.6h-42.667zM503.467 188.118h-34.133v42.667H512v-34.133a8.53 8.53 0 0 0-8.533-8.534zM0 281.984a8.53 8.53 0 0 1 8.533-8.533h34.133v-25.6H0v34.133zM59.733 247.851h25.6v25.6h-25.6zM59.733 290.518h25.6v25.6h-25.6zM59.733 188.118h25.6v42.667h-25.6zM59.733 333.184h25.6v42.667h-25.6zM42.667 316.118v-25.6H8.533A8.53 8.53 0 0 1 0 281.985v34.133h42.667zM0 367.318a8.53 8.53 0 0 0 8.533 8.533h34.133v-42.667H0v34.134zM0 196.651v34.133h42.667v-42.667H8.533A8.532 8.532 0 0 0 0 196.651zM102.4 375.851h34.133a8.53 8.53 0 0 0 8.533-8.533v-34.133H102.4v42.666zM102.4 230.784h42.667v-34.133a8.53 8.53 0 0 0-8.533-8.533H102.4v42.666zM238.933 299.051h34.133v25.6h-34.133zM238.933 256.384h34.133v25.6h-34.133z"/>
</svg>
