<svg xmlns="http://www.w3.org/2000/svg" xml:space="preserve" width="800" height="800" viewBox="0 0 510.596 510.596">
  <path d="m509.801 395.907-31.188-68.626-.009-.009-.018-.035c-.071-.168-.203-.309-.291-.477-.238-.459-.486-.909-.803-1.315-.221-.282-.494-.503-.742-.75-.247-.247-.468-.521-.75-.742-.406-.318-.856-.565-1.315-.803-.168-.088-.309-.212-.477-.291l-.026-.018h-.009l-65.615-29.828-27.321-60.098c10.823-10.964 13.621-26.854 8.492-40.422 5.985 1.262 12.138 1.96 18.406 1.96 23.578 0 45.753-9.181 62.42-25.856a8.817 8.817 0 0 0 0-12.482l-49.938-49.938 19.615-19.615c5.5 3.231 11.644 4.979 17.841 4.979 9.039 0 18.088-3.452 24.964-10.328 13.771-13.771 13.771-36.175 0-49.938-13.33-13.339-36.59-13.347-49.929 0-11.599 11.599-13.303 29.272-5.358 42.805l-19.615 19.615-49.938-49.938c-3.443-3.452-9.031-3.452-12.482 0-16.675 16.675-25.856 38.841-25.856 62.42 0 6.268.697 12.42 1.96 18.414-13.559-5.129-29.449-2.339-40.413 8.483l-60.107-27.321-29.82-65.598c0-.009-.009-.018-.009-.026l-.009-.026c-.088-.194-.229-.353-.335-.539-.229-.433-.459-.865-.759-1.253-.247-.318-.556-.574-.847-.847-.221-.212-.406-.45-.644-.644-.424-.335-.909-.591-1.386-.847-.15-.071-.265-.185-.415-.247l-.018-.009s-.018-.009-.026-.018l-68.619-31.19a8.784 8.784 0 0 0-9.896 1.792L27.373 87.453a8.803 8.803 0 0 0-2.445 7.812 8.809 8.809 0 0 0 5.032 6.462l65.651 29.837 29.82 65.607s0 .009.009.018l.009.026c.097.212.247.38.353.583.23.415.45.839.742 1.209.247.318.556.574.847.856.221.212.406.45.636.636.424.327.883.574 1.351.821.159.088.291.203.459.274l.018.018h.018l57.026 25.927-1.395 1.404c-8.783 8.783-12.253 20.798-10.69 32.247l-55.543 11.114a8.823 8.823 0 0 0-6.718 6.1 8.812 8.812 0 0 0 2.207 8.792l24.973 24.964 18.723-18.723c3.443-3.443 9.031-3.443 12.482 0 3.443 3.452 3.443 9.039 0 12.482l-18.723 18.723 12.482 12.491 18.723-18.723c3.452-3.452 9.039-3.452 12.482 0 3.452 3.443 3.452 9.031 0 12.482l-18.723 18.723 12.482 12.482 18.732-18.723c3.443-3.452 9.031-3.452 12.482 0a8.833 8.833 0 0 1 0 12.482l-18.732 18.723 24.973 24.973a8.854 8.854 0 0 0 6.241 2.587c.856 0 1.713-.132 2.56-.38a8.852 8.852 0 0 0 6.1-6.718l11.105-55.543c1.721.238 3.434.512 5.208.512 10.214 0 19.818-3.981 27.048-11.202l1.395-1.395 25.918 57.017a.028.028 0 0 1 .009.018l.009.026c.088.185.221.335.318.512.238.45.477.892.786 1.289.212.274.486.494.742.742.247.256.468.53.742.742.397.309.847.547 1.289.786.177.097.327.23.512.318l.026.009s.009.009.018.009l65.607 29.82 29.837 65.651a8.825 8.825 0 0 0 6.462 5.032c.521.097 1.051.15 1.58.15a8.844 8.844 0 0 0 6.241-2.586l81.143-81.152a8.814 8.814 0 0 0 1.789-9.889zM100.36 114.333l-51.5-23.411 67.814-67.805 51.5 23.402-67.814 67.814zm48.375 76.465 67.814-67.813 51.491 23.411-67.813 67.813-51.492-23.411zm134.559 115.12c-.009.009-.009.018-.009.018l-10.39 10.39c-7.795 7.777-21.363 7.777-29.131 0l-22.89-22.89-22.908-22.908c-8.015-8.033-8.007-21.08.018-29.105l95.717-95.718a20.554 20.554 0 0 1 14.557-6.02 20.564 20.564 0 0 1 14.566 6.02l45.78 45.78c8.033 8.033 8.033 21.098 0 29.131l-4.14 4.14s-.018.009-.026.018l-81.144 81.144zm40.219 59.657-23.411-51.491 67.813-67.813 23.411 51.491-67.813 67.813zm99.875 99.875-23.411-51.491 67.814-67.822 23.411 51.5-67.814 67.813z"/>
  <path d="M314.507 162.356c-3.452-3.452-9.039-3.452-12.482 0l-87.393 87.384c-3.443 3.452-3.443 9.039 0 12.482l37.455 37.455a8.803 8.803 0 0 0 6.241 2.586c2.26 0 4.52-.865 6.241-2.586l87.384-87.384c3.452-3.452 3.452-9.039 0-12.482l-37.446-37.455zm-56.179 118.599-24.973-24.973 31.214-31.206 24.973 24.964-31.214 31.215zm43.696-43.697-24.973-24.964 31.214-31.214 24.964 24.973-31.205 31.205z"/>
</svg>
