<svg xmlns="http://www.w3.org/2000/svg" xml:space="preserve" viewBox="0 0 512 512">
  <path d="M238.933 247.467h34.133v42.667h-34.133zM238.933 187.733h34.133V230.4h-34.133zM409.6 8.533h34.133v34.133H409.6zM503.467 8.533H460.8v34.133H512v-25.6a8.53 8.53 0 0 0-8.533-8.533zM409.6 59.733h34.133v34.133H409.6zM460.8 93.867h42.667A8.53 8.53 0 0 0 512 85.334v-25.6h-51.2v34.133zM409.6 426.667h34.133V460.8H409.6zM503.467 426.667H460.8V460.8H512v-25.6a8.53 8.53 0 0 0-8.533-8.533zM409.6 477.867h34.133V512H409.6z"/>
  <path d="M341.333 435.2v25.6H307.2v-34.133c0-.119-.06-.213-.068-.324-.034-.964-.171-1.929-.538-2.85l-16.461-41.139v-41.31c19.046-1.476 34.133-17.271 34.133-36.685v-130.85c0-19.413-15.087-35.209-34.133-36.685V102.4h8.533a8.53 8.53 0 0 0 8.533-8.533V59.733h34.133v25.6a8.53 8.53 0 0 0 8.533 8.533h42.667V59.733H358.4V42.667h34.133V8.533h-42.667a8.53 8.53 0 0 0-8.533 8.533v25.6H307.2V8.533A8.53 8.53 0 0 0 298.667 0h-34.133v51.2c0 4.71-3.814 8.533-8.533 8.533s-8.533-3.823-8.533-8.533V0h-34.133a8.53 8.53 0 0 0-8.533 8.533v34.133h-34.133v-25.6a8.53 8.53 0 0 0-8.533-8.533h-42.667v34.133H153.6v17.067h-34.133v34.133h42.667a8.53 8.53 0 0 0 8.533-8.533v-25.6H204.8v34.133a8.53 8.53 0 0 0 8.533 8.533h8.533v34.423c-19.046 1.476-34.133 17.271-34.133 36.685v130.85c0 19.413 15.087 35.209 34.133 36.685v41.31l-16.461 41.139c-.367.922-.503 1.886-.538 2.842-.009.12-.068.213-.068.333V460.8h-34.133v-25.6a8.53 8.53 0 0 0-8.533-8.533h-42.667V460.8H153.6v17.067h-34.133V512h42.667a8.53 8.53 0 0 0 8.533-8.533v-25.6H204.8v25.6a8.53 8.53 0 0 0 8.533 8.533h34.133v-51.2c0-4.71 3.814-8.533 8.533-8.533s8.533 3.823 8.533 8.533V512h34.133a8.53 8.53 0 0 0 8.533-8.533v-25.6h34.133v25.6a8.53 8.53 0 0 0 8.533 8.533h42.667v-34.133H358.4V460.8h34.133v-34.133h-42.667a8.531 8.531 0 0 0-8.533 8.533zm-115.396-17.067 10.24-25.6h39.646l10.24 25.6h-60.126zM281.6 307.2h-51.2a8.53 8.53 0 0 1-8.533-8.533V179.2a8.53 8.53 0 0 1 8.533-8.533h51.2a8.53 8.53 0 0 1 8.533 8.533v119.467a8.53 8.53 0 0 1-8.533 8.533zM460.8 512h42.667a8.53 8.53 0 0 0 8.533-8.533v-25.6h-51.2V512zM68.267 477.867H102.4V512H68.267zM0 503.467A8.53 8.53 0 0 0 8.533 512H51.2v-34.133H0v25.6zM68.267 426.667H102.4V460.8H68.267zM0 435.2v25.6h51.2v-34.133H8.533A8.53 8.53 0 0 0 0 435.2zM68.267 59.733H102.4v34.133H68.267zM8.533 93.867H51.2V59.733H0v25.6a8.53 8.53 0 0 0 8.533 8.534zM68.267 8.533H102.4v34.133H68.267zM51.2 8.533H8.533A8.53 8.53 0 0 0 0 17.067v25.6h51.2V8.533z"/>
</svg>
