<svg xmlns="http://www.w3.org/2000/svg" width="400" height="400" class="img-fluid" style="transform:none;transform-origin:50% 50%;cursor:move;max-height:429.46px" viewBox="0 0 4000 4000"><path fill="#4FA5F8" d="m127 3623-7-6v-237l8-1c4 0 51-3 106-5l98-3 14-12 14-11v-227l11-7 11-6 190 1 190 2 19-17 19-17V1452l-13-11-14-11-204-2-204-3-3-119-3-118 13-15 12-15 246-122c135-68 254-127 265-134 11-6 97-49 190-95 94-47 184-92 200-101 17-8 176-88 354-176l323-161 38-1h37l44 23c53 27 67 34 144 72 33 16 68 33 78 38 9 5 25 13 35 17 9 5 28 15 42 22s106 53 205 102 189 94 200 100c10 6 62 32 115 58 52 26 124 63 160 80 36 18 110 55 165 82s109 55 120 61 82 42 158 80l138 70-3 126-3 126-204 3-204 2-14 11-13 11v1625l18 16 18 16 196 2 197 1 5 15c3 8 6 64 6 123v109l12 7 11 7 101 2c56 1 105 3 109 3l8 2-3 123-3 122-1871 3-1871 2-6-7zm1740-526 13-13v-817l1-818-6-9-6-10h-277l-6 16-6 16v1613l10 15 9 15 98 6c54 3 111 4 128 2l30-3 12-13zm516 12c12-7 25-17 29-23l8-11V1454l-12-12-12-12h-251l-12 8-13 8v1638l10 10 11 11 92 6c51 3 100 6 110 7s28-3 40-9zm572-22 15-21V1452l-14-11-14-12-133 3-134 3-3 825-2 825 18 15 18 15 117-3 117-3 15-22zm-1635 4 10-20-2-818-3-818-134-3-133-3-14 12-14 11v1619l10 20 11 19h258l11-19z" style="transform:none"/></svg>